<?xml version="1.0" encoding="utf-8"?>
<!-- Generator: Adobe Illustrator 17.0.2, SVG Export Plug-In . SVG Version: 6.00 Build 0)  -->
<svg version="1.2" baseProfile="tiny" id="Layer_1" xmlns="http://www.w3.org/2000/svg" xmlns:xlink="http://www.w3.org/1999/xlink"
	 x="0px" y="0px" width="40px" height="40px" viewBox="0 0 40 40" xml:space="preserve">
<g>
	<path fill="#393837" d="M31.021,11.966c-0.031-0.137-0.123-0.252-0.249-0.313L20.169,6.546c-0.128-0.061-0.274-0.061-0.401,0
		L9.165,11.653c-0.127,0.061-0.219,0.176-0.25,0.313L6.296,23.44c-0.031,0.136,0.002,0.281,0.09,0.39l7.338,9.202
		c0.087,0.11,0.22,0.174,0.361,0.174h11.769c0.14,0,0.273-0.064,0.36-0.174l7.339-9.202c0.087-0.109,0.119-0.254,0.089-0.39
		L31.021,11.966z M32.529,22.713l-4.277-5.364l0.661-1.29c0.087-0.17,0.02-0.378-0.15-0.466c-0.17-0.087-0.379-0.02-0.466,0.15
		l-0.519,1.012l-3.462-4.341h2.237c0.191,0,0.346-0.155,0.346-0.346c0-0.191-0.155-0.346-0.346-0.346h-2.634
		c-0.047,0-0.092,0.01-0.133,0.027l-3.155-3.957l8.336,4.015c-0.075,0.063-0.125,0.155-0.125,0.261c0,0.191,0.155,0.346,0.346,0.346
		h0.818l-0.373,0.727c-0.087,0.17-0.02,0.378,0.15,0.466c0.051,0.026,0.104,0.038,0.157,0.038c0.126,0,0.247-0.069,0.309-0.188
		l0.116-0.227L32.529,22.713z M12.356,18.661c0.062,0.119,0.183,0.188,0.308,0.188c0.054,0,0.107-0.013,0.158-0.038
		c0.17-0.087,0.237-0.296,0.15-0.466l-0.354-0.689l7.349-9.215l7.349,9.215l-0.354,0.69c-0.087,0.17-0.02,0.379,0.15,0.466
		c0.05,0.026,0.104,0.038,0.157,0.038c0.126,0,0.247-0.069,0.309-0.188l0.211-0.412l3.852,4.831h-6.329l0.932-1.817
		c0.087-0.17,0.02-0.378-0.15-0.466c-0.17-0.087-0.379-0.02-0.466,0.151l-1.094,2.132h-9.134l-1.094-2.133
		c-0.087-0.169-0.296-0.237-0.466-0.15c-0.17,0.087-0.237,0.296-0.149,0.466l0.932,1.818H8.294l3.852-4.83L12.356,18.661z
		 M30.913,24.004L19.968,31.62L9.024,24.004H30.913z M9.572,13.232l0.116,0.225c0.062,0.12,0.183,0.188,0.308,0.188
		c0.053,0,0.108-0.012,0.157-0.038c0.171-0.088,0.238-0.296,0.15-0.466l-0.373-0.727h0.818c0.191,0,0.346-0.155,0.346-0.346
		c0-0.106-0.05-0.198-0.125-0.261l8.337-4.015l-3.155,3.957c-0.041-0.017-0.086-0.027-0.134-0.027h-2.633
		c-0.192,0-0.347,0.155-0.347,0.346c0,0.191,0.155,0.346,0.347,0.346h2.237l-3.462,4.342l-0.52-1.013
		c-0.087-0.17-0.296-0.237-0.466-0.15c-0.17,0.087-0.237,0.296-0.15,0.466l0.662,1.291l-4.276,5.362L9.572,13.232z M8.073,24.466
		l11.232,7.816h-5L8.073,24.466z M25.631,32.282h-5l11.233-7.817L25.631,32.282z"/>
	<path fill="#393837" d="M16.976,26.15c-0.087-0.169-0.297-0.236-0.466-0.15c-0.17,0.088-0.237,0.295-0.149,0.466l1.335,2.602
		c0.06,0.12,0.181,0.188,0.308,0.188c0.054,0,0.107-0.013,0.158-0.038c0.17-0.088,0.237-0.296,0.15-0.467L16.976,26.15z"/>
	<path fill="#393837" d="M21.776,29.219c0.05,0.025,0.105,0.038,0.158,0.038c0.126,0,0.247-0.069,0.308-0.188l1.334-2.602
		c0.088-0.17,0.02-0.378-0.15-0.466c-0.17-0.087-0.379-0.02-0.466,0.149l-1.334,2.603C21.539,28.923,21.607,29.132,21.776,29.219z"
		/>
	<path fill="#393837" d="M18.65,12.414h2.635c0.191,0,0.346-0.155,0.346-0.346c0-0.191-0.154-0.346-0.346-0.346H18.65
		c-0.191,0-0.346,0.155-0.346,0.346C18.305,12.259,18.46,12.414,18.65,12.414z"/>
</g>
</svg>
